<svg width="385" height="70" viewBox="0 0 385 70" fill="none" xmlns="http://www.w3.org/2000/svg">
<g clip-path="url(#clip0_55473_69201)">
<path d="M12.6489 66.4066C17.8234 68.4189 27.1663 69.5688 43.6961 70C47.1458 70 50.7392 70.1437 54.9076 70.1437H55.0513V53.1828C55.0513 52.3203 54.3326 51.7454 53.614 51.7454H32.0534C29.6099 51.7454 27.5975 49.7331 27.5975 47.2895V22.7105C27.5975 20.2669 29.6099 18.2546 32.0534 18.2546H53.614C54.4764 18.2546 55.0513 17.5359 55.0513 16.8172V0H54.9076C31.3347 0 18.9733 1.29363 12.7926 3.59343C2.87474 7.47433 0.718686 17.6797 0.287474 26.3039C0.287474 27.885 0 31.4784 0 35.0719C0 38.6653 0.287474 42.115 0.287474 43.6961C0.718686 52.4641 2.87474 62.6694 12.6489 66.4066Z" fill="#292929"/>
<path d="M84.6604 51.6016H62.8124C62.0937 51.6016 61.5187 52.1766 61.5187 52.8953V70H61.6625C85.2354 69.8563 97.453 68.7064 103.777 66.2628C113.552 62.5257 115.708 52.3203 116.139 43.6961C116.139 42.115 116.426 38.5216 116.426 34.9281C116.426 31.3347 116.139 27.7413 116.139 26.1602C115.708 17.5359 113.552 7.3306 103.777 3.59343C98.6029 1.58111 89.26 0.431211 72.7302 -6.10948e-07C69.2805 -6.10948e-07 65.5434 -0.143738 61.5187 -0.143738H61.375V16.8172C61.375 17.5359 61.9499 18.1109 62.6686 18.1109H84.5167C86.8165 18.1109 88.6851 19.9795 88.6851 22.2793V47.4333C88.8288 49.7331 86.9602 51.6016 84.6604 51.6016Z" fill="#292929"/>
<path d="M217.187 17.2485C211.438 19.4045 210.144 25.4415 209.857 30.616C209.857 31.6222 209.713 33.6345 209.713 35.7906C209.713 37.9466 209.857 39.9589 209.857 40.9651C210.144 46.1396 211.294 52.1766 217.187 54.3326C221.068 55.77 228.542 56.4887 243.204 56.4887H275.545V32.7721H252.69C251.828 32.7721 250.965 33.0595 250.391 33.6345L244.21 39.5277H259.59V45.5647H228.83C227.393 45.5647 226.099 44.4148 226.099 42.8337V28.46C226.099 27.0226 227.249 25.729 228.83 25.729H275.545V14.8049H243.204C228.542 14.9487 221.068 15.6674 217.187 17.2485Z" fill="#292929"/>
<path d="M198.501 18.8296C197.782 18.2546 196.776 17.8234 195.913 17.3922C192.032 15.9548 184.558 15.2361 169.897 15.2361H167.597C152.936 15.2361 145.461 15.9548 141.581 17.3922C135.831 19.5483 134.537 25.729 134.25 30.7598V41.1088C134.537 45.5647 135.4 50.7392 139.425 53.4702C139.999 53.7577 140.574 54.1889 141.293 54.3327C145.174 55.77 152.648 56.4887 167.166 56.4887H169.466C184.127 56.4887 191.601 55.77 195.482 54.3327C201.232 52.1766 202.525 45.9959 202.813 40.9651C202.813 39.9589 202.956 37.9466 202.956 35.7906C202.956 35.2156 202.956 34.4969 202.956 33.922C202.956 32.4846 202.813 31.3347 202.813 30.7598C202.813 26.4476 201.806 21.7043 198.501 18.8296ZM183.839 45.5647H152.936C151.498 45.5647 150.205 44.4148 150.205 42.8337V28.46C150.205 27.0226 151.355 25.729 152.936 25.729H183.839C185.277 25.729 186.57 26.8789 186.57 28.46V42.8337C186.57 44.4148 185.42 45.5647 183.839 45.5647Z" fill="#292929"/>
<path d="M298.83 14.9487H282.875V56.4887H298.83V14.9487Z" fill="#292929"/>
<path d="M367.823 17.2485C363.942 15.8111 356.467 15.0924 341.95 15.0924H339.506C324.845 15.0924 317.371 15.8111 313.49 17.2485C307.74 19.4045 306.447 25.4415 306.159 30.616C306.159 31.6222 306.016 33.6345 306.016 35.7906C306.016 37.9466 306.159 39.9589 306.159 40.9651C306.447 46.1396 307.74 52.1766 313.49 54.3326C317.371 55.77 324.845 56.4887 339.506 56.4887H341.95C356.467 56.4887 364.085 55.77 367.823 54.3326C373.572 52.1766 374.866 45.9959 375.153 40.9651C375.153 39.9589 375.297 37.9466 375.297 35.7906C375.297 33.6345 375.153 31.6222 375.153 30.616C374.866 25.4415 373.572 19.4045 367.823 17.2485ZM356.18 45.5647H325.276C323.839 45.5647 322.545 44.4148 322.545 42.8337V28.46C322.545 27.0226 323.695 25.729 325.276 25.729H356.18C357.617 25.729 358.911 26.8789 358.911 28.46V42.8337C358.767 44.4148 357.617 45.5647 356.18 45.5647Z" fill="#292929"/>
<path d="M380.76 7.3306C382.916 7.3306 384.641 9.05544 384.641 11.3552C384.641 13.655 382.916 15.3799 380.76 15.3799C378.604 15.3799 376.879 13.655 376.879 11.3552C376.879 9.05544 378.604 7.3306 380.76 7.3306ZM380.76 7.90555C379.035 7.90555 377.598 9.34292 377.598 11.2115C377.598 13.0801 379.035 14.5175 380.76 14.5175C382.485 14.5175 383.922 13.0801 383.922 11.2115C383.922 9.34292 382.485 7.90555 380.76 7.90555ZM380.041 13.5113H379.322V9.05544C379.754 9.05544 380.041 8.91171 380.616 8.91171C381.335 8.91171 381.766 9.05544 382.053 9.19918C382.341 9.34292 382.485 9.63039 382.485 10.0616C382.485 10.6366 382.053 10.924 381.622 11.0678C382.053 11.2115 382.341 11.499 382.341 12.0739C382.485 12.7926 382.485 13.0801 382.628 13.2238H381.91C381.766 13.0801 381.766 12.6489 381.622 12.0739C381.478 11.499 381.191 11.3552 380.616 11.3552H380.185L380.041 13.5113ZM380.041 11.0678H380.616C381.191 11.0678 381.622 10.924 381.622 10.3491C381.622 9.91787 381.335 9.63039 380.616 9.63039C380.329 9.63039 380.185 9.63039 380.041 9.63039V11.0678Z" fill="#292929"/>
</g>
<defs>
<clipPath id="clip0_55473_69201">
<rect width="384.641" height="70" fill="white"/>
</clipPath>
</defs>
</svg>
